<svg width="78" height="78" viewBox="0 0 78 78" fill="none" xmlns="http://www.w3.org/2000/svg">
<rect width="78" height="78" rx="20" fill="#0E0C0B"/>
<g clip-path="url(#clip0_525_345)">
<path d="M56.6494 39.4144C56.6494 38.1908 56.5502 36.9606 56.3385 35.7568H39.3604V42.6883H49.083C48.6795 44.9238 47.3831 46.9014 45.4849 48.1581V52.6556H51.2854C54.6916 49.5206 56.6494 44.8908 56.6494 39.4144Z" fill="#4285F4"/>
<path d="M39.3597 57.001C44.2143 57.001 48.3084 55.407 51.2913 52.6556L45.4908 48.1581C43.877 49.256 41.7936 49.8777 39.3663 49.8777C34.6703 49.8777 30.6887 46.7096 29.2601 42.4502H23.2744V47.0866C26.3301 53.1649 32.5539 57.001 39.3597 57.001Z" fill="#34A853"/>
<path d="M29.2542 42.4501C28.5002 40.2145 28.5002 37.7938 29.2542 35.5583V30.9219H23.2751C20.7221 36.008 20.7221 42.0003 23.2751 47.0865L29.2542 42.4501Z" fill="#FBBC04"/>
<path d="M39.3597 28.1245C41.9259 28.0848 44.4061 29.0504 46.2647 30.823L51.4038 25.6839C48.1497 22.6283 43.8307 20.9483 39.3597 21.0012C32.5539 21.0012 26.3301 24.8373 23.2744 30.9222L29.2535 35.5586C30.6755 31.2926 34.6637 28.1245 39.3597 28.1245Z" fill="#EA4335"/>
</g>
<defs>
<clipPath id="clip0_525_345">
<rect width="36" height="36" fill="white" transform="translate(21 21)"/>
</clipPath>
</defs>
</svg>
