<svg width="78" height="78" viewBox="0 0 78 78" fill="none" xmlns="http://www.w3.org/2000/svg">
<rect width="78" height="78" rx="20" fill="#0E0C0B"/>
<g clip-path="url(#clip0_525_484)">
<path d="M21 38.25C21 30.1188 21 26.052 23.526 23.526C26.052 21 30.12 21 38.25 21H39.75C47.8812 21 51.948 21 54.474 23.526C57 26.052 57 30.12 57 38.25V39.75C57 47.8812 57 51.948 54.474 54.474C51.948 57 47.88 57 39.75 57H38.25C30.1188 57 26.052 57 23.526 54.474C21 51.948 21 47.88 21 39.75V38.25Z" fill="#2787F5"/>
<path fill-rule="evenodd" clip-rule="evenodd" d="M30.75 32.25H28.1256C27.3756 32.25 27.2256 32.6028 27.2256 32.9928C27.2256 33.6876 28.1148 37.1364 31.3692 41.6964C33.5376 44.8116 36.594 46.5 39.3744 46.5C41.0436 46.5 41.25 46.1244 41.25 45.48V43.1256C41.25 42.3756 41.4084 42.2256 41.9364 42.2256C42.3264 42.2256 42.9924 42.42 44.5512 43.9212C46.3308 45.702 46.6236 46.5 47.6244 46.5H50.25C51 46.5 51.3756 46.1244 51.1584 45.384C50.922 44.6472 50.0724 43.5768 48.9444 42.3084C48.3324 41.586 47.4156 40.8072 47.1372 40.4172C46.7472 39.9168 46.8588 39.6948 47.1372 39.2496C47.1372 39.2496 50.3352 34.7448 50.6688 33.2148C50.8368 32.6592 50.6688 32.25 49.8744 32.25H47.25C46.5828 32.25 46.2744 32.6028 46.1076 32.9928C46.1076 32.9928 44.7732 36.246 42.882 38.3592C42.27 38.9712 41.9916 39.1668 41.658 39.1668C41.4912 39.1668 41.25 38.9712 41.25 38.4156V33.2148C41.25 32.5476 41.0568 32.25 40.5 32.25H36.3744C35.958 32.25 35.7072 32.5596 35.7072 32.8536C35.7072 33.486 36.6528 33.6324 36.75 35.412V39.2772C36.75 40.1256 36.5976 40.2792 36.2628 40.2792C35.3736 40.2792 33.2088 37.0104 31.9248 33.2712C31.6728 32.544 31.4208 32.25 30.75 32.25Z" fill="white"/>
</g>
<defs>
<clipPath id="clip0_525_484">
<rect width="36" height="36" fill="white" transform="translate(21 21)"/>
</clipPath>
</defs>
</svg>
