<svg width="36" height="36" viewBox="0 0 36 36" fill="none" xmlns="http://www.w3.org/2000/svg">
<path fill-rule="evenodd" clip-rule="evenodd" d="M2.80835 15.6847C12.2036 10.7454 18.4685 7.4891 21.6032 5.91582C30.5534 1.42379 32.4131 0.643473 33.6253 0.617706C33.8919 0.612039 34.488 0.691767 34.8742 1.06984C35.2002 1.38908 35.2899 1.82033 35.3328 2.123C35.3758 2.42567 35.4292 3.11517 35.3867 3.65393C34.9017 9.80318 32.8031 24.7258 31.7354 31.6131C31.2836 34.5273 30.3941 35.5045 29.5329 35.6001C27.6613 35.8079 26.2402 34.1076 24.4275 32.6738C21.5909 30.4302 19.9885 29.0335 17.2352 26.8441C14.0532 24.3139 16.1159 22.9232 17.9293 20.6505C18.4039 20.0558 26.65 11.0052 26.8096 10.1841C26.8296 10.0814 26.8481 9.69869 26.6597 9.49658C26.4712 9.29447 26.1931 9.36358 25.9924 9.41855C25.7079 9.49646 21.1765 13.1105 12.3983 20.2607C11.1121 21.3264 9.94707 21.8457 8.90326 21.8185C7.75254 21.7885 5.53902 21.0334 3.89349 20.3879C1.87519 19.5963 0.27108 19.1777 0.410762 17.8333C0.483517 17.133 1.28271 16.4168 2.80835 15.6847Z" fill="white"/>
</svg>
