<svg width="46" height="26" viewBox="0 0 46 26" fill="none" xmlns="http://www.w3.org/2000/svg">
<path fill-rule="evenodd" clip-rule="evenodd" d="M7.10419 0.127502H2.18219C0.775584 0.127502 0.494263 0.746451 0.494263 1.43066C0.494263 2.64961 2.16194 8.70013 8.26549 16.7001C12.3323 22.1654 18.0645 25.1275 23.2791 25.1275C26.4096 25.1275 26.7967 24.4686 26.7967 23.338V19.2075C26.7967 17.8917 27.0938 17.6286 28.084 17.6286C28.8155 17.6286 30.0645 17.9696 32.988 20.6033C36.3256 23.7275 36.8748 25.1275 38.7517 25.1275H43.676C45.0826 25.1275 45.787 24.4686 45.3797 23.1696C44.9363 21.877 43.3429 19.9991 41.2274 17.7738C40.0796 16.5065 38.3601 15.1401 37.838 14.4559C37.1066 13.578 37.3159 13.1886 37.838 12.4075C37.838 12.4075 43.8358 4.50434 44.4614 1.82013C44.7765 0.845397 44.4614 0.127502 42.9716 0.127502H38.0496C36.7982 0.127502 36.2198 0.746451 35.907 1.43066C35.907 1.43066 33.4044 7.13803 29.8575 10.8454C28.7097 11.9191 28.1876 12.2622 27.5619 12.2622C27.2491 12.2622 26.7967 11.9191 26.7967 10.9443V1.82013C26.7967 0.649608 26.4344 0.127502 25.3901 0.127502H17.6526C16.8717 0.127502 16.4013 0.670661 16.4013 1.18645C16.4013 2.29592 18.1748 2.55277 18.3571 5.67487V12.4559C18.3571 13.9443 18.0712 14.2138 17.4433 14.2138C15.7756 14.2138 11.7156 8.47908 9.3075 1.91908C8.83488 0.643292 8.36226 0.127502 7.10419 0.127502Z" fill="white"/>
</svg>
